<?xml version="1.0" encoding="iso-8859-1"?>
<!-- Generator: Adobe Illustrator 19.0.0, SVG Export Plug-In . SVG Version: 6.00 Build 0)  -->
<svg version="1.1" id="Layer_1" xmlns="http://www.w3.org/2000/svg" xmlns:xlink="http://www.w3.org/1999/xlink" x="0px" y="0px"
	 viewBox="0 0 512.001 512.001" style="enable-background:new 0 0 512.001 512.001;" xml:space="preserve">
<path style="fill:#E8E8E8;" d="M217.522,70.744H135.87c-7.393,0-13.387,5.994-13.387,13.387v105.213h108.427V84.131
	C230.909,76.738,224.916,70.744,217.522,70.744z"/>
<path style="fill:#FF6361;" d="M217.522,70.744H135.87c-7.393,0-13.387,5.994-13.387,13.387v31.476h108.427V84.131
	C230.909,76.738,224.916,70.744,217.522,70.744z"/>
<path style="opacity:0.15;enable-background:new    ;" d="M144.4,176.136c-3.138,0-5.683-2.544-5.683-5.683v-99.53
	c0-0.06,0.008-0.119,0.009-0.179h-2.856c-7.393,0-13.387,5.994-13.387,13.387v105.213h108.427v-13.208H144.4z"/>
<path style="fill:#E8E8E8;" d="M434.45,189.344H82.268c-9.099,0-16.475,7.377-16.475,16.475v79.747h385.133v-79.747
	C450.926,196.721,443.549,189.344,434.45,189.344z"/>
<path style="fill:#7D868C;" d="M293.22,214.435h-42.213c-6.015,0-10.891,4.876-10.891,10.891v60.241h63.994v-60.241
	C304.111,219.311,299.235,214.435,293.22,214.435z"/>
<g>
	<circle style="fill:#333E48;" cx="283.107" cy="253.055" r="8.37"/>
	<path style="fill:#333E48;" d="M450.926,214.435h-67.583c-4.829,0-8.744,3.915-8.744,8.744v28.555c0,4.829,3.915,8.744,8.744,8.744
		h67.583L450.926,214.435L450.926,214.435z"/>
	<circle style="fill:#333E48;" cx="145.497" cy="237.458" r="23.021"/>
</g>
<path style="fill:#FFFFFF;" d="M145.503,268.867c-17.321,0-31.412-14.091-31.412-31.412c0-17.32,14.091-31.412,31.412-31.412
	s31.412,14.091,31.412,31.412S162.824,268.867,145.503,268.867z M145.503,222.826c-8.066,0-14.629,6.562-14.629,14.629
	c0,8.067,6.563,14.629,14.629,14.629c8.067,0,14.629-6.563,14.629-14.629C160.132,229.388,153.569,222.826,145.503,222.826z"/>
<path style="opacity:0.15;enable-background:new    ;" d="M92.94,272.452c-4.179,0-7.567-3.388-7.567-7.567v-73.918
	c0-0.549,0.036-1.09,0.094-1.623h-3.199c-9.099,0-16.475,7.377-16.475,16.475v79.747h385.133v-13.114H92.94z"/>
<path style="fill:#E8E8E8;" d="M370.848,441.257H141.152C63.196,441.257,0,378.061,0,300.105l0,0
	c0-8.029,6.508-14.539,14.539-14.539h482.924c8.029,0,14.539,6.51,14.539,14.539l0,0C512,378.061,448.804,441.257,370.848,441.257z"
	/>
<path style="fill:#FF6361;" d="M497.461,285.567H14.539C6.51,285.567,0,292.075,0,300.105l0,0c0,10.77,1.212,21.256,3.496,31.335
	h505.007c2.285-10.079,3.496-20.565,3.496-31.335l0,0C512,292.075,505.49,285.567,497.461,285.567z"/>
<path style="opacity:0.15;enable-background:new    ;" d="M385.843,425.184H156.148c-77.443,0-140.308-62.37-141.133-139.618h-0.477
	c-8.03,0-14.539,6.51-14.539,14.539l0,0c0,77.956,63.196,141.152,141.152,141.152h229.697c44.698,0,84.536-20.782,110.399-53.203
	C456.124,411.108,422.629,425.184,385.843,425.184z"/>
<circle style="fill:#333E48;" cx="213.715" cy="380.84" r="23.021"/>
<path style="fill:#FFFFFF;" d="M213.714,412.25c-17.32,0-31.412-14.091-31.412-31.412c0-17.321,14.091-31.412,31.412-31.412
	s31.412,14.091,31.412,31.412C245.126,398.159,231.035,412.25,213.714,412.25z M213.714,366.209
	c-8.067,0-14.629,6.563-14.629,14.629c0,8.067,6.562,14.629,14.629,14.629c8.066,0,14.629-6.562,14.629-14.629
	C228.343,372.772,221.779,366.209,213.714,366.209z"/>
<circle style="fill:#333E48;" cx="117.682" cy="380.84" r="23.021"/>
<path style="fill:#FFFFFF;" d="M117.687,412.25c-17.321,0-31.412-14.091-31.412-31.412c0-17.321,14.091-31.412,31.412-31.412
	c17.32,0,31.412,14.091,31.412,31.412C149.099,398.159,135.007,412.25,117.687,412.25z M117.687,366.209
	c-8.066,0-14.629,6.563-14.629,14.629c0,8.067,6.563,14.629,14.629,14.629s14.629-6.562,14.629-14.629
	C132.316,372.772,125.753,366.209,117.687,366.209z"/>
<circle style="fill:#333E48;" cx="309.736" cy="380.84" r="23.021"/>
<path style="fill:#FFFFFF;" d="M309.74,412.25c-17.321,0-31.412-14.091-31.412-31.412c0-17.321,14.091-31.412,31.412-31.412
	c17.32,0,31.412,14.091,31.412,31.412C341.152,398.159,327.06,412.25,309.74,412.25z M309.74,366.209
	c-8.067,0-14.629,6.563-14.629,14.629c0,8.067,6.563,14.629,14.629,14.629s14.629-6.562,14.629-14.629
	C324.369,372.772,317.806,366.209,309.74,366.209z"/>
<g>
	<path style="fill:#333E48;" d="M396.638,412.425c-9.723,0-18.687-4.88-23.981-13.056c-2.519-3.89-1.406-9.086,2.484-11.605
		c3.889-2.519,9.085-1.408,11.605,2.484c2.186,3.378,5.884,5.394,9.892,5.394s7.706-2.016,9.892-5.394
		c2.519-3.891,7.713-5.002,11.605-2.484c3.89,2.519,5.002,7.715,2.484,11.605C415.325,407.543,406.361,412.425,396.638,412.425z"/>
	<path style="fill:#333E48;" d="M396.638,412.425c-4.634,0-8.392-3.757-8.392-8.392v-48.627c0-4.634,3.757-8.392,8.392-8.392
		s8.392,3.757,8.392,8.392v48.627C405.03,408.668,401.272,412.425,396.638,412.425z"/>
	<path style="fill:#333E48;" d="M411.256,377.374H382.02c-4.634,0-8.392-3.757-8.392-8.392s3.757-8.392,8.392-8.392h29.236
		c4.634,0,8.392,3.757,8.392,8.392S415.891,377.374,411.256,377.374z"/>
</g>
<g>
</g>
<g>
</g>
<g>
</g>
<g>
</g>
<g>
</g>
<g>
</g>
<g>
</g>
<g>
</g>
<g>
</g>
<g>
</g>
<g>
</g>
<g>
</g>
<g>
</g>
<g>
</g>
<g>
</g>
</svg>
